<svg width="51" height="50" viewBox="0 0 51 50" fill="none" xmlns="http://www.w3.org/2000/svg">
<rect x="0.5" width="50" height="50" rx="25" fill="#FFB240"/>
<g clip-path="url(#clip0_167_40329)">
<path d="M22.2075 23.3525C23.3804 25.4131 25.0869 27.1196 27.1475 28.2925L28.2525 26.745C28.4302 26.4962 28.6929 26.3211 28.991 26.2529C29.2891 26.1847 29.6018 26.2282 29.87 26.375C31.6379 27.3412 33.5903 27.9222 35.5988 28.08C35.9122 28.1048 36.2048 28.2469 36.4182 28.4779C36.6316 28.7089 36.75 29.0118 36.75 29.3263V34.9038C36.7501 35.2132 36.6353 35.5118 36.428 35.7415C36.2206 35.9713 35.9354 36.1159 35.6275 36.1475C34.965 36.2162 34.2975 36.25 33.625 36.25C22.925 36.25 14.25 27.575 14.25 16.875C14.25 16.2025 14.2838 15.535 14.3525 14.8725C14.3841 14.5646 14.5287 14.2794 14.7585 14.072C14.9882 13.8647 15.2868 13.7499 15.5963 13.75H21.1737C21.4882 13.75 21.7911 13.8684 22.0221 14.0818C22.2531 14.2952 22.3952 14.5878 22.42 14.9013C22.5778 16.9097 23.1588 18.8621 24.125 20.63C24.2718 20.8982 24.3153 21.2109 24.2471 21.509C24.1789 21.8071 24.0038 22.0698 23.755 22.2475L22.2075 23.3525ZM19.055 22.5312L21.43 20.835C20.756 19.3801 20.2942 17.8361 20.0587 16.25H16.7625C16.755 16.4575 16.7512 16.6662 16.7512 16.875C16.75 26.195 24.305 33.75 33.625 33.75C33.8337 33.75 34.0425 33.7463 34.25 33.7375V30.4412C32.6639 30.2058 31.1199 29.744 29.665 29.07L27.9688 31.445C27.2858 31.1796 26.6225 30.8664 25.9838 30.5075L25.9113 30.4662C23.4595 29.0709 21.4291 27.0405 20.0337 24.5887L19.9925 24.5162C19.6336 23.8775 19.3204 23.2142 19.055 22.5312Z" fill="white"/>
</g>
<defs>
<clipPath id="clip0_167_40329">
<rect width="30" height="30" fill="white" transform="translate(10.5 10)"/>
</clipPath>
</defs>
</svg>
