<svg width="51" height="50" viewBox="0 0 51 50" fill="none" xmlns="http://www.w3.org/2000/svg">
<rect x="0.5" width="50" height="50" rx="25" fill="#00B900"/>
<g clip-path="url(#clip0_167_40333)">
<path d="M38 23.3625C38 25.5963 37.1413 27.6125 35.3463 29.58C32.7213 32.5975 26.8612 36.2838 25.5162 36.845C24.1737 37.4088 24.3775 36.4863 24.4237 36.1738L24.595 35.1113C24.6375 34.7838 24.68 34.2988 24.555 33.9863C24.415 33.64 23.86 33.4563 23.4537 33.3713C17.4475 32.5738 13 28.375 13 23.3625C13 17.7688 18.6087 13.215 25.5 13.215C32.39 13.215 38 17.7688 38 23.3625ZM33.5 27.8938C34.8912 26.3688 35.5 24.9425 35.5 23.3625C35.5 19.2775 31.1125 15.715 25.5 15.715C19.8875 15.715 15.5 19.2775 15.5 23.3625C15.5 26.9938 18.91 30.2463 23.7825 30.8925L23.9662 30.925C25.3137 31.2075 26.3212 31.6925 26.8775 33.06L26.9225 33.18C29.18 31.71 32.14 29.455 33.4988 27.8938H33.5ZM33.1725 22.8938C33.3395 22.9041 33.4964 22.9777 33.611 23.0997C33.7257 23.2216 33.7895 23.3827 33.7895 23.55C33.7895 23.7174 33.7257 23.8785 33.611 24.0004C33.4964 24.1223 33.3395 24.196 33.1725 24.2063H31.3438V25.3788H33.1712C33.2598 25.3749 33.3481 25.389 33.431 25.4202C33.514 25.4514 33.5897 25.4991 33.6537 25.5603C33.7177 25.6216 33.7686 25.6952 33.8034 25.7767C33.8382 25.8581 33.8561 25.9458 33.8561 26.0344C33.8561 26.123 33.8382 26.2107 33.8034 26.2921C33.7686 26.3736 33.7177 26.4472 33.6537 26.5085C33.5897 26.5697 33.514 26.6174 33.431 26.6486C33.3481 26.6798 33.2598 26.6939 33.1712 26.69H30.6875C30.5144 26.6887 30.3488 26.6192 30.2267 26.4966C30.1045 26.374 30.0357 26.2081 30.035 26.035V21.065C30.035 20.7063 30.3288 20.4088 30.6912 20.4088H33.1763C33.3503 20.4093 33.517 20.4789 33.6397 20.6023C33.7625 20.7257 33.8311 20.8929 33.8306 21.0669C33.8301 21.241 33.7605 21.4077 33.6371 21.5304C33.5137 21.6531 33.3465 21.7218 33.1725 21.7213H31.345V22.8938H33.1725ZM29.1562 26.035C29.1559 26.121 29.1387 26.2062 29.1054 26.2855C29.0722 26.3648 29.0237 26.4369 28.9626 26.4974C28.9016 26.558 28.8292 26.606 28.7496 26.6386C28.67 26.6712 28.5848 26.6879 28.4988 26.6875C28.3959 26.6898 28.2939 26.6674 28.2015 26.6222C28.1091 26.5769 28.0288 26.5102 27.9675 26.4275L25.4225 22.9725V26.035C25.41 26.2 25.3356 26.3542 25.2143 26.4667C25.093 26.5792 24.9336 26.6417 24.7681 26.6417C24.6027 26.6417 24.4433 26.5792 24.322 26.4667C24.2006 26.3542 24.1262 26.2 24.1137 26.035V21.065C24.1134 20.8922 24.1817 20.7263 24.3035 20.6037C24.4254 20.4811 24.5909 20.4119 24.7638 20.4113C24.9663 20.4113 25.1537 20.5188 25.2787 20.675L27.8438 24.1438V21.065C27.8438 20.7063 28.1375 20.4088 28.5 20.4088C28.8587 20.4088 29.1562 20.7063 29.1562 21.065V26.035ZM23.1762 26.035C23.1753 26.2089 23.1056 26.3753 22.9824 26.498C22.8593 26.6207 22.6926 26.6897 22.5187 26.69C22.3455 26.689 22.1796 26.6197 22.0571 26.497C21.9347 26.3744 21.8657 26.2083 21.865 26.035V21.065C21.865 20.7063 22.16 20.4088 22.5212 20.4088C22.8825 20.4088 23.1762 20.7063 23.1762 21.065V26.035ZM20.6075 26.69H18.1213C17.9477 26.689 17.7816 26.6198 17.6587 26.4972C17.5359 26.3746 17.4663 26.2086 17.465 26.035V21.065C17.4793 20.9009 17.5547 20.748 17.6762 20.6367C17.7977 20.5254 17.9565 20.4636 18.1213 20.4636C18.286 20.4636 18.4448 20.5254 18.5663 20.6367C18.6878 20.748 18.7632 20.9009 18.7775 21.065V25.3775H20.6075C20.7815 25.3775 20.9485 25.4467 21.0715 25.5697C21.1946 25.6928 21.2638 25.8597 21.2638 26.0338C21.2638 26.2078 21.1946 26.3747 21.0715 26.4978C20.9485 26.6209 20.7815 26.69 20.6075 26.69Z" fill="white"/>
</g>
<defs>
<clipPath id="clip0_167_40333">
<rect width="30" height="30" fill="white" transform="translate(10.5 10)"/>
</clipPath>
</defs>
</svg>
