<svg width="51" height="50" viewBox="0 0 51 50" fill="none" xmlns="http://www.w3.org/2000/svg">
<rect x="0.5" width="50" height="50" rx="25" fill="#E1306C"/>
<g clip-path="url(#clip0_167_40331)">
<path d="M25.5 21.25C24.5054 21.25 23.5516 21.6451 22.8483 22.3483C22.1451 23.0516 21.75 24.0054 21.75 25C21.75 25.9946 22.1451 26.9484 22.8483 27.6517C23.5516 28.3549 24.5054 28.75 25.5 28.75C26.4946 28.75 27.4484 28.3549 28.1517 27.6517C28.8549 26.9484 29.25 25.9946 29.25 25C29.25 24.0054 28.8549 23.0516 28.1517 22.3483C27.4484 21.6451 26.4946 21.25 25.5 21.25ZM25.5 18.75C27.1576 18.75 28.7473 19.4085 29.9194 20.5806C31.0915 21.7527 31.75 23.3424 31.75 25C31.75 26.6576 31.0915 28.2473 29.9194 29.4194C28.7473 30.5915 27.1576 31.25 25.5 31.25C23.8424 31.25 22.2527 30.5915 21.0806 29.4194C19.9085 28.2473 19.25 26.6576 19.25 25C19.25 23.3424 19.9085 21.7527 21.0806 20.5806C22.2527 19.4085 23.8424 18.75 25.5 18.75ZM33.625 18.4375C33.625 18.8519 33.4604 19.2493 33.1674 19.5424C32.8743 19.8354 32.4769 20 32.0625 20C31.6481 20 31.2507 19.8354 30.9576 19.5424C30.6646 19.2493 30.5 18.8519 30.5 18.4375C30.5 18.0231 30.6646 17.6257 30.9576 17.3326C31.2507 17.0396 31.6481 16.875 32.0625 16.875C32.4769 16.875 32.8743 17.0396 33.1674 17.3326C33.4604 17.6257 33.625 18.0231 33.625 18.4375ZM25.5 15C22.4075 15 21.9025 15.0088 20.4638 15.0725C19.4838 15.1188 18.8262 15.25 18.2162 15.4875C17.6737 15.6975 17.2825 15.9488 16.8663 16.3663C16.475 16.7442 16.1742 17.2057 15.9862 17.7162C15.7487 18.3287 15.6175 18.985 15.5725 19.9638C15.5075 21.3438 15.5 21.8263 15.5 25C15.5 28.0925 15.5088 28.5975 15.5725 30.0362C15.6188 31.015 15.75 31.6737 15.9862 32.2825C16.1988 32.8263 16.4488 33.2175 16.8637 33.6325C17.285 34.0525 17.6762 34.3037 18.2137 34.5112C18.8313 34.75 19.4888 34.8825 20.4638 34.9275C21.8438 34.9925 22.3263 35 25.5 35C28.5925 35 29.0975 34.9912 30.5362 34.9275C31.5138 34.8812 32.1725 34.75 32.7825 34.5138C33.3237 34.3025 33.7175 34.0513 34.1325 33.6362C34.5538 33.215 34.805 32.8238 35.0125 32.2863C35.25 31.67 35.3825 31.0112 35.4275 30.0362C35.4925 28.6562 35.5 28.1737 35.5 25C35.5 21.9075 35.4912 21.4025 35.4275 19.9638C35.3812 18.9863 35.25 18.3262 35.0125 17.7162C34.8241 17.2063 34.5238 16.745 34.1337 16.3663C33.7559 15.9748 33.2944 15.674 32.7837 15.4862C32.1712 15.2487 31.5138 15.1175 30.5362 15.0725C29.1562 15.0075 28.6737 15 25.5 15ZM25.5 12.5C28.8962 12.5 29.32 12.5125 30.6525 12.575C31.9837 12.6375 32.89 12.8463 33.6875 13.1563C34.5125 13.4738 35.2075 13.9037 35.9025 14.5975C36.5381 15.2224 37.0299 15.9782 37.3438 16.8125C37.6525 17.6087 37.8625 18.5162 37.925 19.8475C37.9838 21.18 38 21.6038 38 25C38 28.3962 37.9875 28.82 37.925 30.1525C37.8625 31.4837 37.6525 32.39 37.3438 33.1875C37.0308 34.0222 36.5389 34.7783 35.9025 35.4025C35.2775 36.0379 34.5216 36.5297 33.6875 36.8438C32.8912 37.1525 31.9837 37.3625 30.6525 37.425C29.32 37.4838 28.8962 37.5 25.5 37.5C22.1038 37.5 21.68 37.4875 20.3475 37.425C19.0162 37.3625 18.11 37.1525 17.3125 36.8438C16.4779 36.5306 15.7219 36.0387 15.0975 35.4025C14.4618 34.7777 13.9699 34.0218 13.6563 33.1875C13.3463 32.3912 13.1375 31.4837 13.075 30.1525C13.0162 28.82 13 28.3962 13 25C13 21.6038 13.0125 21.18 13.075 19.8475C13.1375 18.515 13.3463 17.61 13.6563 16.8125C13.969 15.9777 14.461 15.2217 15.0975 14.5975C15.7221 13.9615 16.478 13.4697 17.3125 13.1563C18.11 12.8463 19.015 12.6375 20.3475 12.575C21.68 12.5162 22.1038 12.5 25.5 12.5Z" fill="white"/>
</g>
<defs>
<clipPath id="clip0_167_40331">
<rect width="30" height="30" fill="white" transform="translate(10.5 10)"/>
</clipPath>
</defs>
</svg>
