<svg width="51" height="50" viewBox="0 0 51 50" fill="none" xmlns="http://www.w3.org/2000/svg">
<rect x="0.5" width="50" height="50" rx="25" fill="#4267B2"/>
<g clip-path="url(#clip0_167_40332)">
<path d="M28 33.75H34.25V16.25H16.75V33.75H25.5V27.5H23V25H25.5V22.9325C25.5 21.2612 25.675 20.655 26 20.0437C26.3201 19.439 26.815 18.9446 27.42 18.625C27.8975 18.3688 28.4912 18.215 29.5287 18.1488C29.94 18.1225 30.4725 18.155 31.1262 18.2487V20.6237H30.5C29.3538 20.6237 28.88 20.6775 28.5975 20.8288C28.4289 20.9154 28.2917 21.0527 28.205 21.2213C28.055 21.5038 28 21.7838 28 22.9313V25H31.125L30.5 27.5H28V33.75ZM15.5 13.75H35.5C35.8315 13.75 36.1495 13.8817 36.3839 14.1161C36.6183 14.3505 36.75 14.6685 36.75 15V35C36.75 35.3315 36.6183 35.6495 36.3839 35.8839C36.1495 36.1183 35.8315 36.25 35.5 36.25H15.5C15.1685 36.25 14.8505 36.1183 14.6161 35.8839C14.3817 35.6495 14.25 35.3315 14.25 35V15C14.25 14.6685 14.3817 14.3505 14.6161 14.1161C14.8505 13.8817 15.1685 13.75 15.5 13.75Z" fill="white"/>
</g>
<defs>
<clipPath id="clip0_167_40332">
<rect width="30" height="30" fill="white" transform="translate(10.5 10)"/>
</clipPath>
</defs>
</svg>
