<svg width="51" height="50" viewBox="0 0 51 50" fill="none" xmlns="http://www.w3.org/2000/svg">
<rect x="0.5" width="50" height="50" rx="25" fill="#E01507"/>
<g clip-path="url(#clip0_167_40326)">
<path d="M25.5 36.125L31.6875 29.9375C32.9111 28.7138 33.7444 27.1547 34.0819 25.4574C34.4195 23.7601 34.2462 22.0008 33.5839 20.402C32.9216 18.8032 31.8001 17.4367 30.3612 16.4752C28.9222 15.5138 27.2306 15.0007 25.5 15.0007C23.7695 15.0007 22.0778 15.5138 20.6389 16.4752C19.1999 17.4367 18.0784 18.8032 17.4161 20.402C16.7539 22.0008 16.5805 23.7601 16.9181 25.4574C17.2556 27.1547 18.0889 28.7138 19.3125 29.9375L25.5 36.125ZM25.5 39.66L17.545 31.705C15.9717 30.1317 14.9002 28.1271 14.4662 25.9448C14.0321 23.7626 14.2549 21.5006 15.1064 19.4449C15.9579 17.3892 17.3998 15.6322 19.2499 14.3961C21.0999 13.1599 23.275 12.5001 25.5 12.5001C27.725 12.5001 29.9001 13.1599 31.7502 14.3961C33.6002 15.6322 35.0421 17.3892 35.8936 19.4449C36.7451 21.5006 36.9679 23.7626 36.5338 25.9448C36.0998 28.1271 35.0283 30.1317 33.455 31.705L25.5 39.66ZM25.5 26.25C26.163 26.25 26.7989 25.9866 27.2678 25.5178C27.7366 25.049 28 24.4131 28 23.75C28 23.087 27.7366 22.4511 27.2678 21.9823C26.7989 21.5134 26.163 21.25 25.5 21.25C24.837 21.25 24.2011 21.5134 23.7322 21.9823C23.2634 22.4511 23 23.087 23 23.75C23 24.4131 23.2634 25.049 23.7322 25.5178C24.2011 25.9866 24.837 26.25 25.5 26.25ZM25.5 28.75C24.1739 28.75 22.9022 28.2232 21.9645 27.2856C21.0268 26.3479 20.5 25.0761 20.5 23.75C20.5 22.4239 21.0268 21.1522 21.9645 20.2145C22.9022 19.2768 24.1739 18.75 25.5 18.75C26.8261 18.75 28.0979 19.2768 29.0355 20.2145C29.9732 21.1522 30.5 22.4239 30.5 23.75C30.5 25.0761 29.9732 26.3479 29.0355 27.2856C28.0979 28.2232 26.8261 28.75 25.5 28.75Z" fill="white"/>
</g>
<defs>
<clipPath id="clip0_167_40326">
<rect width="30" height="30" fill="white" transform="translate(10.5 10)"/>
</clipPath>
</defs>
</svg>
