<svg width="51" height="50" viewBox="0 0 51 50" fill="none" xmlns="http://www.w3.org/2000/svg">
<rect x="0.5" width="50" height="50" rx="25" fill="#2AABEE"/>
<g clip-path="url(#clip0_167_40328)">
<path d="M25.5 35C28.1522 35 30.6957 33.9464 32.5711 32.0711C34.4464 30.1957 35.5 27.6522 35.5 25C35.5 22.3478 34.4464 19.8043 32.5711 17.9289C30.6957 16.0536 28.1522 15 25.5 15C22.8478 15 20.3043 16.0536 18.4289 17.9289C16.5536 19.8043 15.5 22.3478 15.5 25C15.5 27.6522 16.5536 30.1957 18.4289 32.0711C20.3043 33.9464 22.8478 35 25.5 35ZM25.5 37.5C18.5963 37.5 13 31.9037 13 25C13 18.0963 18.5963 12.5 25.5 12.5C32.4037 12.5 38 18.0963 38 25C38 31.9037 32.4037 37.5 25.5 37.5ZM21.6125 26.4625L18.49 25.4887C17.815 25.2825 17.8113 24.8175 18.6413 24.4837L30.8075 19.7838C31.5138 19.4963 31.9137 19.86 31.685 20.7712L29.6138 30.5462C29.4688 31.2425 29.05 31.4088 28.4688 31.0875L25.28 28.7275L23.7938 30.1625C23.6413 30.31 23.5175 30.4363 23.2825 30.4675C23.0487 30.5 22.8563 30.43 22.715 30.0425L21.6275 26.4538L21.6125 26.4637V26.4625Z" fill="white"/>
</g>
<defs>
<clipPath id="clip0_167_40328">
<rect width="30" height="30" fill="white" transform="translate(10.5 10)"/>
</clipPath>
</defs>
</svg>
