<svg width="51" height="50" viewBox="0 0 51 50" fill="none" xmlns="http://www.w3.org/2000/svg">
<rect x="0.5" width="50" height="50" rx="25" fill="#00ACEE"/>
<g clip-path="url(#clip0_167_40334)">
<path d="M29.6254 16.9375C28.6754 16.9374 27.7632 17.3102 27.0853 17.9757C26.4073 18.6413 26.0178 19.5464 26.0004 20.4963L25.9654 22.465C25.9633 22.5707 25.939 22.6748 25.8939 22.7704C25.8488 22.866 25.784 22.9511 25.7037 23.0199C25.6234 23.0887 25.5295 23.1398 25.4281 23.1697C25.3267 23.1997 25.2202 23.2079 25.1154 23.1938L23.1641 22.9288C20.5966 22.5788 18.1366 21.3963 15.7766 19.43C15.0291 23.5675 16.4891 26.4338 20.0054 28.645L22.1891 30.0175C22.2929 30.0827 22.3791 30.1724 22.4402 30.2786C22.5013 30.3848 22.5354 30.5044 22.5396 30.6269C22.5438 30.7493 22.5179 30.871 22.4643 30.9811C22.4106 31.0913 22.3307 31.1866 22.2316 31.2588L20.2416 32.7125C21.4254 32.7863 22.5491 32.7338 23.4816 32.5488C29.3791 31.3713 33.3004 26.9338 33.3004 19.6138C33.3004 19.0163 32.0354 16.9375 29.6254 16.9375ZM23.5004 20.45C23.5222 19.2451 23.899 18.0734 24.5836 17.0815C25.2682 16.0897 26.2301 15.3219 27.349 14.8742C28.4679 14.4265 29.694 14.3189 30.8738 14.5647C32.0536 14.8105 33.1347 15.399 33.9816 16.2563C34.8704 16.25 35.6266 16.475 37.3179 15.45C36.8991 17.5 36.6929 18.39 35.8004 19.6138C35.8004 29.1663 29.9291 33.8113 23.9716 35C19.8866 35.815 13.9466 34.4763 12.2441 32.6988C13.1116 32.6313 16.6366 32.2525 18.6741 30.7613C16.9504 29.625 10.0891 25.5875 14.5979 14.7325C16.7141 17.2038 18.8604 18.8863 21.0354 19.7788C22.4829 20.3725 22.8379 20.36 23.5016 20.4513L23.5004 20.45Z" fill="white"/>
</g>
<defs>
<clipPath id="clip0_167_40334">
<rect width="30" height="30" fill="white" transform="translate(10.5 10)"/>
</clipPath>
</defs>
</svg>
