<svg width="51" height="50" viewBox="0 0 51 50" fill="none" xmlns="http://www.w3.org/2000/svg">
<rect x="0.5" width="50" height="50" rx="25" fill="#25D366"/>
<g clip-path="url(#clip0_167_40327)">
<path d="M19.5663 33.1175L20.4713 33.6462C21.9974 34.5363 23.7333 35.0036 25.5 35C27.4778 35 29.4112 34.4135 31.0557 33.3147C32.7002 32.2159 33.9819 30.6541 34.7388 28.8268C35.4957 26.9996 35.6937 24.9889 35.3079 23.0491C34.922 21.1093 33.9696 19.3275 32.5711 17.9289C31.1726 16.5304 29.3907 15.578 27.4509 15.1921C25.5111 14.8063 23.5004 15.0043 21.6732 15.7612C19.8459 16.5181 18.2841 17.7998 17.1853 19.4443C16.0865 21.0888 15.5 23.0222 15.5 25C15.5 26.795 15.9713 28.5163 16.855 30.03L17.3825 30.935L16.5663 33.9363L19.5663 33.1175ZM13.005 37.5L14.695 31.29C13.5814 29.3811 12.9964 27.21 13 25C13 18.0963 18.5963 12.5 25.5 12.5C32.4038 12.5 38 18.0963 38 25C38 31.9037 32.4038 37.5 25.5 37.5C23.291 37.5036 21.1208 36.919 19.2125 35.8063L13.005 37.5ZM20.9888 19.135C21.1563 19.1225 21.325 19.1225 21.4925 19.13C21.56 19.135 21.6275 19.1425 21.695 19.15C21.8938 19.1725 22.1125 19.2937 22.1863 19.4612C22.5588 20.3062 22.9213 21.1575 23.2713 22.0113C23.3488 22.2013 23.3025 22.445 23.155 22.6825C23.0536 22.8431 22.9438 22.9983 22.8263 23.1475C22.685 23.3287 22.3813 23.6613 22.3813 23.6613C22.3813 23.6613 22.2575 23.8088 22.305 23.9925C22.3225 24.0625 22.38 24.1638 22.4325 24.2488L22.5063 24.3675C22.8263 24.9013 23.2563 25.4425 23.7813 25.9525C23.9313 26.0975 24.0775 26.2463 24.235 26.385C24.82 26.9012 25.4825 27.3225 26.1975 27.635L26.2038 27.6375C26.31 27.6837 26.3638 27.7088 26.5188 27.775C26.5963 27.8075 26.6763 27.8363 26.7575 27.8575C26.8415 27.8789 26.9299 27.8749 27.0116 27.8459C27.0932 27.817 27.1645 27.7645 27.2163 27.695C28.1213 26.5988 28.2038 26.5275 28.2113 26.5275V26.53C28.2741 26.4714 28.3488 26.4269 28.4303 26.3995C28.5118 26.3721 28.5982 26.3625 28.6838 26.3713C28.7588 26.3763 28.835 26.39 28.905 26.4213C29.5688 26.725 30.655 27.1987 30.655 27.1987L31.3825 27.525C31.505 27.5838 31.6163 27.7225 31.62 27.8562C31.625 27.94 31.6325 28.075 31.6038 28.3225C31.5638 28.6462 31.4663 29.035 31.3688 29.2388C31.302 29.3778 31.2134 29.5052 31.1063 29.6162C30.9801 29.7487 30.842 29.8692 30.6938 29.9762C30.6425 30.0148 30.5904 30.0523 30.5375 30.0887C30.382 30.1874 30.2223 30.2791 30.0588 30.3638C29.7369 30.5347 29.3815 30.6328 29.0175 30.6512C28.7863 30.6637 28.555 30.6812 28.3225 30.6688C28.3125 30.6688 27.6125 30.56 27.6125 30.56C25.8353 30.0925 24.1918 29.2168 22.8125 28.0025C22.53 27.7538 22.2688 27.4862 22.0013 27.22C20.8888 26.1138 20.0488 24.92 19.5388 23.7925C19.2777 23.2391 19.1367 22.6368 19.125 22.025C19.1199 21.2661 19.368 20.5271 19.83 19.925C19.9213 19.8075 20.0075 19.685 20.1563 19.5438C20.315 19.3938 20.415 19.3138 20.5238 19.2587C20.6684 19.1863 20.8261 19.1438 20.9875 19.1337L20.9888 19.135Z" fill="white"/>
</g>
<defs>
<clipPath id="clip0_167_40327">
<rect width="30" height="30" fill="white" transform="translate(10.5 10)"/>
</clipPath>
</defs>
</svg>
