<svg width="250" height="200" viewBox="0 0 250 200" fill="none" xmlns="http://www.w3.org/2000/svg">
<rect width="250" height="200" fill="white"/>
<path fill-rule="evenodd" clip-rule="evenodd" d="M201 65C204.866 65 208 68.134 208 72C208 75.866 204.866 79 201 79H161C164.866 79 168 82.134 168 86C168 89.866 164.866 93 161 93H183C186.866 93 190 96.134 190 100C190 103.866 186.866 107 183 107H172.826C167.952 107 164 110.134 164 114C164 116.577 166 118.911 170 121C173.866 121 177 124.134 177 128C177 131.866 173.866 135 170 135H87C83.134 135 80 131.866 80 128C80 124.134 83.134 121 87 121H48C44.134 121 41 117.866 41 114C41 110.134 44.134 107 48 107H88C91.866 107 95 103.866 95 100C95 96.134 91.866 93 88 93H63C59.134 93 56 89.866 56 86C56 82.134 59.134 79 63 79H103C99.134 79 96 75.866 96 72C96 68.134 99.134 65 103 65H201ZM201 93C204.866 93 208 96.134 208 100C208 103.866 204.866 107 201 107C197.134 107 194 103.866 194 100C194 96.134 197.134 93 201 93Z" fill="#F3F7FF"/>
<path fill-rule="evenodd" clip-rule="evenodd" d="M147.623 64.0007L156.924 131.843L157.76 138.65C158.029 140.842 156.47 142.838 154.277 143.107L95.7172 150.298C93.5245 150.567 91.5287 149.008 91.2595 146.815L82.2437 73.3874C82.1091 72.2911 82.8888 71.2932 83.9851 71.1586C83.992 71.1578 83.9989 71.1569 84.0059 71.1562L88.8642 70.6112M92.7928 70.1705L97.3798 69.656L92.7928 70.1705Z" fill="white"/>
<path d="M148.861 63.8309C148.767 63.1469 148.137 62.6685 147.453 62.7623C146.769 62.856 146.29 63.4865 146.384 64.1705L148.861 63.8309ZM156.924 131.843L158.165 131.691C158.164 131.685 158.164 131.679 158.163 131.674L156.924 131.843ZM157.76 138.65L159.001 138.497L157.76 138.65ZM154.277 143.107L154.43 144.348L154.277 143.107ZM95.7172 150.298L95.8695 151.538L95.7172 150.298ZM91.2595 146.815L92.5002 146.663L91.2595 146.815ZM82.2437 73.3874L81.0031 73.5398L82.2437 73.3874ZM84.0059 71.1562L84.1452 72.3984L84.0059 71.1562ZM89.0036 71.8534C89.6896 71.7764 90.1834 71.1579 90.1065 70.4718C90.0295 69.7858 89.411 69.292 88.7249 69.369L89.0036 71.8534ZM92.6534 68.9283C91.9674 69.0053 91.4736 69.6238 91.5506 70.3098C91.6275 70.9959 92.2461 71.4897 92.9321 71.4127L92.6534 68.9283ZM97.5192 70.8982C98.2052 70.8212 98.699 70.2027 98.622 69.5166C98.5451 68.8306 97.9265 68.3368 97.2405 68.4137L97.5192 70.8982ZM146.384 64.1705L155.686 132.013L158.163 131.674L148.861 63.8309L146.384 64.1705ZM155.684 131.996L156.519 138.802L159.001 138.497L158.165 131.691L155.684 131.996ZM156.519 138.802C156.705 140.31 155.633 141.682 154.125 141.867L154.43 144.348C157.308 143.995 159.354 141.375 159.001 138.497L156.519 138.802ZM154.125 141.867L95.5648 149.057L95.8695 151.538L154.43 144.348L154.125 141.867ZM95.5648 149.057C94.0574 149.242 92.6853 148.17 92.5002 146.663L90.0188 146.967C90.3722 149.845 92.9916 151.892 95.8695 151.538L95.5648 149.057ZM92.5002 146.663L83.4844 73.2351L81.0031 73.5398L90.0188 146.967L92.5002 146.663ZM83.4844 73.2351C83.4339 72.824 83.7263 72.4498 84.1374 72.3993L83.8328 69.9179C82.0512 70.1367 80.7843 71.7582 81.0031 73.5398L83.4844 73.2351ZM84.1374 72.3993C84.14 72.399 84.1426 72.3987 84.1452 72.3984L83.8665 69.914C83.8553 69.9152 83.844 69.9165 83.8328 69.9179L84.1374 72.3993ZM84.1452 72.3984L89.0036 71.8534L88.7249 69.369L83.8665 69.914L84.1452 72.3984ZM92.9321 71.4127L97.5192 70.8982L97.2405 68.4137L92.6534 68.9283L92.9321 71.4127Z" fill="#1F64E7"/>
<path fill-rule="evenodd" clip-rule="evenodd" d="M145.091 68.2686L153.51 129.752L154.268 135.921C154.512 137.908 153.118 139.714 151.154 139.955L98.712 146.394C96.7484 146.635 94.9588 145.22 94.7148 143.233L86.5648 76.8562C86.4302 75.7599 87.2098 74.762 88.3061 74.6274L94.7937 73.8308" fill="#E8F0FE"/>
<path d="M101.873 54C101.873 52.4812 103.104 51.25 104.623 51.25H150.179C150.908 51.25 151.608 51.5395 152.123 52.0549L165.566 65.4898C166.083 66.0056 166.373 66.7053 166.373 67.4349V130C166.373 131.519 165.141 132.75 163.623 132.75H104.623C103.104 132.75 101.873 131.519 101.873 130V54Z" fill="white" stroke="#1F64E7" stroke-width="2.5"/>
<path d="M150.623 52.4023V63.9995C150.623 65.6564 151.966 66.9995 153.623 66.9995H161.556" stroke="#1F64E7" stroke-width="2.5" stroke-linecap="round" stroke-linejoin="round"/>
<path d="M111.951 118H137.951M111.951 67H137.951H111.951ZM111.951 79H154.951H111.951ZM111.951 92H154.951H111.951ZM111.951 105H154.951H111.951Z" stroke="#75A4FE" stroke-width="2.5" stroke-linecap="round" stroke-linejoin="round"/>
</svg>
