<svg width="250" height="200" viewBox="0 0 250 200" fill="none" xmlns="http://www.w3.org/2000/svg">
<rect width="250" height="200" fill="white"/>
<path fill-rule="evenodd" clip-rule="evenodd" d="M63 134H154C154.515 134 155.017 133.944 155.5 133.839C155.983 133.944 156.485 134 157 134H209C212.866 134 216 130.866 216 127C216 123.134 212.866 120 209 120H203C199.134 120 196 116.866 196 113C196 109.134 199.134 106 203 106H222C225.866 106 229 102.866 229 99C229 95.134 225.866 92 222 92H200C203.866 92 207 88.866 207 85C207 81.134 203.866 78 200 78H136C139.866 78 143 74.866 143 71C143 67.134 139.866 64 136 64H79C75.134 64 72 67.134 72 71C72 74.866 75.134 78 79 78H39C35.134 78 32 81.134 32 85C32 88.866 35.134 92 39 92H64C67.866 92 71 95.134 71 99C71 102.866 67.866 106 64 106H24C20.134 106 17 109.134 17 113C17 116.866 20.134 120 24 120H63C59.134 120 56 123.134 56 127C56 130.866 59.134 134 63 134ZM226 134C229.866 134 233 130.866 233 127C233 123.134 229.866 120 226 120C222.134 120 219 123.134 219 127C219 130.866 222.134 134 226 134Z" fill="#F3F7FF"/>
<path fill-rule="evenodd" clip-rule="evenodd" d="M86.2785 139.124L82.2084 139.696C80.0207 140.003 77.9981 138.479 77.6906 136.292L66.5568 57.0701C66.2493 54.8824 67.7735 52.8598 69.9612 52.5523L148.192 41.5576C150.38 41.2502 152.403 42.7744 152.71 44.962C152.71 44.962 153.422 50.0274 153.667 51.7698" fill="white"/>
<path fill-rule="evenodd" clip-rule="evenodd" d="M88.805 134.712L85.1092 135.237C83.1227 135.519 81.2886 134.138 81.0126 132.152L71.0174 60.2272C70.7414 58.241 72.128 56.402 74.1145 56.1197L145.152 46.0229C147.138 45.7406 148.973 47.1218 149.249 49.108L150.108 55.2887C150.154 55.6231 153.223 77.8226 159.313 121.887C159.619 124.1 158.093 126.144 155.905 126.453C155.882 126.457 155.858 126.46 155.835 126.463L88.805 134.712Z" fill="#E8F0FE"/>
<path d="M86.2785 139.124L82.2084 139.696C80.0207 140.003 77.9981 138.479 77.6906 136.292L66.5568 57.0701C66.2493 54.8824 67.7735 52.8598 69.9612 52.5523L148.192 41.5576C150.38 41.2502 152.403 42.7744 152.71 44.962C152.71 44.962 153.422 50.0274 153.667 51.7698" stroke="#1F64E7" stroke-width="2.5" stroke-linecap="round"/>
<path d="M154.5 56.3789L155 59.4993" stroke="#1F64E7" stroke-width="2.5" stroke-linecap="round"/>
<path d="M99.8219 60.4877C99.9806 58.9772 101.334 57.8814 102.844 58.0402L181.411 66.2979C182.922 66.4567 184.018 67.8098 183.859 69.3203L175.497 148.882C175.338 150.393 173.985 151.488 172.474 151.33L93.9071 143.072C92.3966 142.913 91.3008 141.56 91.4596 140.049L99.8219 60.4877Z" fill="white" stroke="#1F64E7" stroke-width="2.5"/>
<path fill-rule="evenodd" clip-rule="evenodd" d="M106.693 69.2531C106.866 67.6053 108.343 66.4099 109.99 66.5831L172.645 73.1684C174.293 73.3416 175.488 74.8178 175.315 76.4656L169.775 129.175C169.602 130.823 168.126 132.018 166.478 131.845L103.823 125.26C102.175 125.087 100.98 123.611 101.153 121.963L106.693 69.2531Z" fill="white"/>
<path fill-rule="evenodd" clip-rule="evenodd" d="M109.741 109.877L119.538 103.269C121.172 102.167 123.365 102.419 124.706 103.863L131.879 111.586C132.237 111.972 132.833 112.014 133.242 111.683L148.581 99.2529C150.429 97.7556 153.167 98.1917 154.459 100.189L164.44 115.626L165.873 118.018L165.187 126.143C165.139 126.704 164.639 127.115 164.08 127.053L107.117 120.724C106.575 120.664 106.182 120.181 106.232 119.638L106.987 111.44L109.741 109.877Z" fill="#E8F0FE"/>
<path d="M107.936 69.3838C108.037 68.4226 108.899 67.7252 109.86 67.8263L172.515 74.4116C173.476 74.5126 174.173 75.3737 174.072 76.3349L168.532 129.045C168.431 130.006 167.57 130.703 166.609 130.602L103.954 124.017C102.993 123.916 102.295 123.055 102.396 122.093L107.936 69.3838Z" stroke="#1F64E7" stroke-width="2.5"/>
<circle cx="122.032" cy="85.9478" r="6" transform="rotate(6 122.032 85.9478)" fill="#F3F7FF" stroke="#1F64E7" stroke-width="2.5"/>
<path d="M107.729 111.424C111.666 108.706 119.538 103.269 119.538 103.269C121.172 102.167 123.365 102.419 124.706 103.863L131.879 111.586C132.238 111.971 132.833 112.013 133.242 111.682L148.582 99.2525C150.298 97.8617 152.817 98.1257 154.208 99.8421C154.297 99.953 154.381 100.069 154.459 100.189C154.459 100.189 163.427 114.419 165.523 117.745" stroke="#1F64E7" stroke-width="2.5" stroke-linecap="round"/>
</svg>
